<svg width="35" height="35" viewBox="0 0 35 35" fill="none" xmlns="http://www.w3.org/2000/svg">
<path d="M35 12.0842C35 11.2579 34.7154 10.4498 34.18 9.80178C33.4988 8.97832 32.4852 8.5011 31.4169 8.5011H23.8576C23.6948 7.91342 23.319 7.41453 22.8155 7.09563L22.8064 2.52786L22.8052 2.51938C22.7859 1.59339 22.2722 0.749424 21.4579 0.309805C21.0763 0.103633 20.6538 0 20.2346 0C19.7768 0 19.3166 0.125234 18.91 0.370713L18.9089 0.369004L14.4555 2.93508L14.4408 2.94533C13.3678 3.61389 12.6822 4.75631 12.5923 6.01597L12.59 6.05862V8.50343C11.1651 8.51026 9.79385 9.04101 8.73687 9.99544L1.30402 16.709C0.460195 17.4715 0 18.5427 0 19.6424C0 20.0415 0.0603613 20.4465 0.186758 20.8394L3.72552 31.959C4.16172 33.3314 5.43505 34.2636 6.87586 34.2636H22.6048C24.328 34.2636 25.9852 33.6001 27.2335 32.4123L31.8132 28.05C32.4089 27.4817 32.8132 26.7437 32.9692 25.9351L32.9738 25.9089L34.9453 12.7118H34.9431C34.9796 12.5039 35 12.2938 35 12.0842ZM14.9704 6.1628C15.0114 5.67308 15.2791 5.2312 15.6948 4.96809L20.1174 2.4191L20.1356 2.40823C20.1664 2.38943 20.1982 2.37918 20.2346 2.37918C20.2654 2.37918 20.295 2.38608 20.3246 2.40317H20.3258C20.3861 2.43619 20.4237 2.49881 20.426 2.56484L20.4362 6.96746C19.82 7.27098 19.3519 7.82681 19.1663 8.5011H16.6981V10.8809H31.4168C31.5967 10.8809 31.7721 10.9214 31.9305 10.9959L25.5296 16.9338C24.8484 17.5511 23.9601 17.8917 23.0421 17.8917H16.7483C16.5603 16.8815 15.8804 16.0466 14.9658 15.6406L14.9704 6.1628ZM10.3314 11.7614C10.951 11.2016 11.7551 10.8918 12.5888 10.8821L12.5865 15.5922C11.6128 15.9761 10.8827 16.8394 10.6868 17.8918H3.54443L10.3314 11.7614ZM3.34284 22.9123L2.45328 20.1184C2.40775 19.9715 2.38499 19.8246 2.38383 19.6766H6.80183L7.21185 22.9123H3.34284ZM3.81664 24.3992H7.39983L7.76542 27.2961H4.73922L3.81664 24.3992ZM6.87586 31.8844C6.47268 31.8844 6.11502 31.6219 5.9932 31.238L5.21186 28.7847H7.95334L8.34518 31.8844H6.87586ZM12.9146 31.8844H9.84402L9.45219 28.7847H12.9146V31.8844ZM12.9146 27.2961H9.26427L8.89868 24.3992H12.9146V27.2961ZM12.9146 22.9123H8.71069L8.30067 19.6766H12.9145L12.9146 22.9123ZM13.59 18.5865C13.1378 18.5865 12.771 18.2187 12.771 17.7682C12.771 17.3154 13.1378 16.9498 13.59 16.9498C14.0409 16.9498 14.4077 17.3154 14.4077 17.7682C14.4078 18.2187 14.041 18.5865 13.59 18.5865ZM18.1538 31.8844H14.4021V28.7847H18.2312L18.1538 31.8844ZM18.2688 27.2961H14.4021V24.3992H18.3417L18.2688 27.2961ZM18.3781 22.9123H14.4021V19.6766H18.4602L18.3781 22.9123ZM23.0057 31.8644C22.8725 31.8765 22.738 31.8844 22.6049 31.8844H19.6414L19.7188 28.7847H23.1823L23.0057 31.8644ZM23.2677 27.2961H19.7563L19.8291 24.3992H23.4339L23.2677 27.2961ZM23.5194 22.9123H19.8668L19.9476 19.6766H23.0422C23.2666 19.6766 23.4875 19.6577 23.7085 19.6316L23.5194 22.9123ZM27.2951 29.0672L25.5923 30.6884C25.3588 30.9106 25.1003 31.1014 24.827 31.2654L24.9944 28.3588L27.4921 26.3519L27.2951 29.0672ZM27.6402 24.3246L25.1105 26.3571L25.2688 23.5923L27.8428 21.5227L27.6402 24.3246ZM27.9898 19.4966L25.3838 21.5911L25.5274 19.0797C25.9579 18.8616 26.3622 18.5882 26.7256 18.2597L28.1777 16.9123L27.9898 19.4966ZM30.6288 25.4937C30.5661 25.812 30.4067 26.1025 30.172 26.3279L28.8964 27.5409L29.0752 25.0785L30.9123 23.6024L30.6288 25.4937ZM31.2358 21.4361L29.2233 23.0524L29.426 20.25L31.6834 18.4373L31.2358 21.4361ZM32.0068 16.2682L29.574 18.2243L29.7768 15.4294L32.5114 12.8918L32.0068 16.2682Z" fill="#01A082"/>
</svg>
