<svg width="35" height="35" viewBox="0 0 35 35" fill="none" xmlns="http://www.w3.org/2000/svg">
<path d="M29.8958 8.75H5.10417M27.4648 12.3958L26.794 22.4583C26.5358 26.3287 26.4075 28.264 25.146 29.4438C23.8846 30.625 21.9435 30.625 18.0644 30.625H16.9356C13.0565 30.625 11.1154 30.625 9.85396 29.4438C8.59251 28.264 8.46271 26.3287 8.20605 22.4583L7.53521 12.3958M13.8542 16.0417L14.5833 23.3333M21.1458 16.0417L20.4167 23.3333" stroke="#01A082" stroke-width="2.1875" stroke-linecap="round"/>
<path d="M9.47917 8.75H9.63959C10.2265 8.735 10.7952 8.54324 11.2714 8.19979C11.7475 7.85634 12.1089 7.37719 12.3083 6.825L12.3579 6.67479L12.4994 6.25042C12.6204 5.88729 12.6817 5.70646 12.7619 5.55187C12.9197 5.24911 13.1462 4.98749 13.4232 4.78794C13.7002 4.58839 14.0201 4.45646 14.3573 4.40271C14.5279 4.375 14.719 4.375 15.101 4.375H19.899C20.281 4.375 20.4721 4.375 20.6427 4.40271C20.9799 4.45646 21.2998 4.58839 21.5768 4.78794C21.8538 4.98749 22.0803 5.24911 22.2381 5.55187C22.3183 5.70646 22.3796 5.88729 22.5006 6.25042L22.6421 6.67479C22.8269 7.28915 23.2091 7.82543 23.7295 8.20059C24.25 8.57575 24.8796 8.76886 25.5208 8.75" stroke="#01A082" stroke-width="2.1875"/>
</svg>
