<svg width="75" height="74" viewBox="0 0 75 74" fill="none" xmlns="http://www.w3.org/2000/svg">
<ellipse cx="37.5" cy="36.9643" rx="37.5" ry="36.9643" fill="#FB8D1F"/>
<path d="M19.25 37.75C19.25 46 27.625 55.75 38 55.75C48.375 55.75 56.75 46 56.75 37.75H19.25Z" fill="#B2C1C0"/>
<path d="M56.75 37.75C56.75 43.0625 48.375 47.375 38 47.375C27.625 47.375 19.25 43.0625 19.25 37.75C19.25 32.4375 27.625 28.125 38 28.125C48.375 28.125 56.75 32.4375 56.75 37.75Z" fill="#E8E8E8"/>
<path d="M38 46.125C28.5 46.125 20.4375 42.25 20.4375 37.6875C20.4375 33.125 28.5 29.25 38 29.25C47.5 29.25 55.5625 33.125 55.5625 37.6875C55.5625 42.3125 47.5 46.125 38 46.125Z" fill="#B2C1C0"/>
<path d="M25.8125 27.25C25.875 28.3125 26.375 31.875 25.9375 33.5C28.6875 34 26.625 28.6875 25.8125 27.25Z" fill="#699635"/>
<path d="M52.75 34.3125C54 31.4375 52.0625 28.4375 50.8125 30.1875C49.5625 31.9375 50.5 33.0625 47.3125 32.4375C46.625 31.25 48.3125 27.625 47.3125 26.9375C45.6875 25.875 45.6875 29.875 43.8125 27.5625C41.9375 25.3125 41.875 30.625 39.0625 30.625C37.6875 30.625 39.625 26.5 36.5 25.6875C33.375 24.875 34.25 28.4375 30.5 26.375C26.75 24.3125 24.8125 27.4375 26.5625 28.75C28.25 30.0625 26.875 32.6875 26.625 33.6875C24.5 32.6875 24.625 37 24.6875 37.6875C23.1875 38.1875 20.75 39.25 20.6875 39.3125C22.25 43.0625 29.5 46.125 38 46.125C47.5 46.125 55.5625 42.25 55.5625 37.6875C55.5625 33.0625 50.6875 39 52.75 34.3125" fill="#83BF4F"/>
<path d="M41.9375 39.5C43.5 36.1875 39.6875 37.5625 38.25 39C38.1875 36.625 39.4375 35.125 40.5 33.5C38.75 34.75 36.875 36.1875 34.8125 36.9375C36 38.3125 36.625 40.1875 36.875 42C41.875 42.5 40.75 44.875 40.5 46.0625C46.4375 45.625 40.4375 42.75 41.9375 39.5Z" fill="#699635"/>
<path d="M28.8125 31.25C27.8125 32.25 27.5 33.5 28.125 34.125C28.6875 34.75 29.9375 34.4375 30.9375 33.4375C31.9375 32.4375 32.25 31.1875 31.625 30.5625C31 30 29.75 30.3125 28.8125 31.25M42 43C41 44 40.6875 45.25 41.3125 45.875C41.875 46.5 43.125 46.1875 44.125 45.1875C45.125 44.1875 45.4375 42.9375 44.8125 42.3125C44.25 41.6875 43 42 42 43Z" fill="#ED4C5C"/>
<path d="M34.3125 29.5C31.875 29.625 30.75 35.9375 29 35.5625C30.4375 36.9375 31.1875 39 31.1875 41C31.5625 41.0625 32.125 40 32.4375 41.125C32 37.6875 32.125 33.9375 34.3125 29.5Z" fill="#699635"/>
<path d="M44.5 31.5625C45.125 32.8125 45.0625 34.125 44.3125 34.5C43.5625 34.875 42.5 34.25 41.8125 33C41.1875 31.75 41.25 30.4375 42 30.0625C42.75 29.6875 43.875 30.3125 44.5 31.5625Z" fill="#ED4C5C"/>
<path d="M49.3125 32.625C44 32 43.1875 31.875 47.625 36.3125C48.8125 37.8125 44.3125 41 42.6875 41.3125C44.75 45.25 45.125 45.625 48 44.625C52 43.25 50 38.5625 51.875 39.5625C50.875 38.0625 45.25 37.375 49.3125 32.625" fill="#699635"/>
<path d="M52.5625 35.8125C52.4375 35.125 53.9375 33.5625 53.625 31.375C53.3125 29.375 51 28.1875 50.3125 30.5C49.6875 32.625 47.6875 32.125 47.6875 32.125C49 27 48.3125 24.5 45.4375 27.5625C43.9375 29.125 45.3125 22.25 40.5625 29.5625C38.125 33.3125 39.125 21 34.75 25.5C31.25 29.0625 28.5625 22.125 26.25 26.3125C25.0625 28.5 27.625 28.8125 26.9375 33.0625C26.9375 33.0625 24.3125 31.4375 24.5625 36.8125C24.625 37.75 19.9375 37.9375 21 39.5C22.0625 39.0625 28.75 35.875 28.375 38.8125C28.25 39.6875 27.6875 42.5 29.25 42.375C30.9375 42.25 32.5 39.625 32.5625 42.625C32.625 44.9375 33.75 45.0625 35.375 43.625C35.8125 43.25 36.125 42.625 36.75 42.375C37.875 41.9375 38.9375 42.5625 40 42.9375C42 43.6875 41.4375 40.875 40.0625 40.375C39.8125 40.3125 38.25 40.0625 38.375 39.8125C38.625 39.0625 39.5 38.5625 40.125 38.25C40.6875 38 41.3125 37.8125 41.9375 37.8125C42.8125 37.875 42.5 38.4375 42.3125 39.125C42.125 39.9375 42.25 41 43.125 41.25C44.125 41.5625 44.9375 40.625 45.625 40.0625C46.125 39.625 49.4375 37.5 48.3125 39.75C47.625 41.0625 44.3125 41.5 45.8125 43.4375C46.8125 44.6875 48.1875 44.125 48.9375 42.9375C49.5625 42 49.8125 40.875 50.0625 39.75C50.25 38.875 50.3125 38.375 51.1875 38.8125C52.375 39.4375 53.875 40.8125 53.9375 38.5625C54 37.0625 54.5625 34.3125 55.875 36.9375C55.0625 33.5 52.6875 36.75 52.5625 35.8125M44.4375 40.0625C44.375 40.125 42.8125 41.25 42.5625 40.1875C42.375 39.375 43.1875 38.4375 42.6875 37.75C41.8125 36.5625 39.5 37.6875 38.625 38.3125C38.125 38.6875 36.875 39.875 37.8125 40.4375C38.5 40.875 39.5625 40.625 40.1875 41.25C40.6875 41.75 40.8125 42.6875 39.9375 42.3125C38.8125 41.875 37.6875 41.3125 36.4375 41.8125C35.75 42.0625 34.0625 44.5625 33.25 44.0625C32.8125 43.8125 33 42.0625 32.9375 41.5625C32.75 40.125 31.75 40.375 30.8125 40.9375C30.4375 41.1875 29.3125 42 28.875 41.6875C28.4375 41.375 28.6875 40 28.75 39.5625C29.0625 36.875 27.3125 36.625 25.0625 37.25C25.0625 36.4375 25 33.1875 26.5 33.75C27.375 34.0625 29.625 36.8125 30.4375 35.25C31.3125 33.5625 35.1875 26.125 35.1875 31.6875C35.1875 33.1875 33.875 36.375 34.9375 37.125C35.875 37.75 38.25 35.125 38.875 34.75C40.4375 33.6875 42.1875 32.6875 43 35.0625C43.5625 36.625 43.6875 38.6875 45.625 39.125C45.125 39.4375 44.75 39.75 44.4375 40.0625M47.4375 37.4375C47.25 38.5625 45.9375 38.8125 45.0625 38.3125C43.25 37.25 44.25 33.5625 42 33C39.3125 32.3125 35.8125 37 35.3125 36.5C34.6875 35.8125 36 32.9375 35.8125 31.0625C35.25 26.25 31.5 30.9375 30 34.8125C29.6875 35.5625 27.375 33.5625 27.375 33.5625C28.5625 28.4375 25.75 28.5 26.625 26.875C28.4375 23.25 31.125 30.25 34.8125 26.4375C38.8125 22.375 37.3125 35.5625 41.0625 30C44.5 24.9375 43.9375 29.125 44.6875 28.875C46 28.4375 48.25 24.125 47.0625 32.0625C39.625 30.6875 47.8125 35.25 47.4375 37.4375ZM52.9375 39.375C52 39.1875 51 37.5625 49.875 38.125C48.9375 38.5625 48.875 41.0625 48.5 41.9375C48.0625 43 46.625 44.3125 45.75 42.75C45.5625 42.375 48.25 40.6875 48.5625 39.9375C49.1875 38.5 47.875 38.375 48 37.4375C48.4375 34.5625 41.5625 31.6875 47.75 32.75C51.25 33.375 50.4375 29.0625 52.0625 30C55.1875 31.875 49.75 36.5625 53.25 36.625C53 37.5625 53.125 38.5 52.9375 39.375Z" fill="#C7E755"/>
<path d="M23.375 38.625C24.375 39.5625 24.6875 40.875 24.0625 41.5C23.5 42.125 22.25 41.8125 21.25 40.8125C20.25 39.8125 19.9375 38.5625 20.5625 37.9375C21.1875 37.375 22.4375 37.6875 23.375 38.625Z" fill="#ED4C5C"/>
</svg>
