<svg width="75" height="74" viewBox="0 0 75 74" fill="none" xmlns="http://www.w3.org/2000/svg">
<ellipse cx="37.5" cy="36.9643" rx="37.5" ry="36.9643" fill="#FB8D1F"/>
<path d="M29.0672 29.8527C29.0672 29.8527 27.4731 27.4984 26.3875 27.0965C25.2992 26.6945 24.1699 26.957 23.6696 26.3035C23.1637 25.6418 22.9012 24.5125 23.0625 23.7879C23.2238 23.0633 23.6367 22.5137 23.9977 22.4344C24.3586 22.3551 25.3156 22.8609 25.3156 22.8609C25.3156 22.8609 25.2746 21.6332 25.3949 21.1902C25.5153 20.7473 26.0211 20.2852 26.2809 20.1238C27.1231 19.5988 27.5688 20.0035 27.5688 20.0035C27.5688 20.0035 27.2461 22.8227 28.2934 24.0695C29.3406 25.3164 33.4887 29.6258 32.6821 29.6668C31.8781 29.7051 29.0672 29.8527 29.0672 29.8527Z" fill="#DDBCA8"/>
<path d="M29.1438 28.0043C29.1438 28.0043 27.3637 26.3336 26.8032 26.041C26.2426 25.7484 25.0778 25.8988 24.6703 25.6856C24.1207 25.3984 23.5246 24.7832 23.4754 23.7852C23.4262 22.7871 23.7051 22.2977 24.6922 22.2512C25.4961 22.2129 25.9828 22.5191 26.2016 22.3004C26.4203 22.0816 26.2262 20.6188 26.3465 20.3754C26.4696 20.132 26.8086 19.6699 27.711 19.8149C28.6133 19.9598 29.0016 20.7938 29.0508 21.0098C29.2532 21.8875 29.1055 23.5363 29.327 23.9274C29.677 24.5426 32.0449 27.1731 32.0449 27.1731C32.0449 27.1731 29.1657 27.9551 29.1438 28.0043V28.0043Z" fill="#FFEBCA"/>
<path d="M29.0727 27.4C25.2282 30.1125 23.9293 33.8723 24.066 36.6641C24.1836 39.0648 25.0367 40.3582 26.434 41.5148C27.8313 42.6715 28.7035 42.9941 29.2832 43.7762C29.8629 44.5582 30.675 47.793 32.4797 49.4938C34.2844 51.1945 40.0485 54.6234 46.7641 48.6023C53.6766 42.4035 51.5492 36.1856 48.9953 33.8695C46.5289 31.6328 44.3852 31.4797 43.286 30.1426C42.0254 28.6113 42.5039 27.9906 40.4586 26.3172C38.0469 24.343 33.8059 24.0641 29.0727 27.4V27.4Z" fill="#CF701E"/>
<path d="M36.7344 36.3742C32.6821 39.6281 29.893 46.3465 34.7602 49.4855C38.4051 51.8344 43.6059 50.0625 46.5672 47.3199C48.8832 45.1762 51.8063 39.4914 49.0282 36.1172C46.5563 33.1148 41.0602 32.9016 36.7344 36.3742V36.3742Z" fill="#FBD5B2"/>
<path d="M36.0699 27.9195C35.8102 27.6598 35.3973 27.6816 35.061 28.0781C34.7246 28.4746 34.6781 28.9777 34.9625 29.2047C35.3781 29.541 35.8129 29.1199 36.0317 28.8301C36.2668 28.5129 36.3653 28.2148 36.0699 27.9195V27.9195ZM28.5942 31.1434C28.0801 31.0641 27.9215 31.559 27.9024 31.9746C27.8832 32.3902 27.8231 32.866 28.3781 32.9043C28.9332 32.9426 29.0508 32.3711 29.0508 31.9937C29.0481 31.6164 29.1028 31.2199 28.5942 31.1434V31.1434ZM28.75 35.9695C28.2551 35.9477 28.0965 36.366 28.1184 36.9785C28.1403 37.591 28.3371 37.9684 28.6735 37.9465C29.0098 37.9273 29.193 37.55 29.2285 37.0359C29.2668 36.4426 29.2258 35.9887 28.75 35.9695V35.9695ZM30.511 37.9465C30.2129 37.7332 29.7781 37.8863 29.6196 38.5016C29.45 39.1578 29.7071 39.3656 29.9176 39.4504C30.2539 39.5898 30.511 39.2316 30.6285 38.8379C30.7489 38.4414 30.7899 38.1434 30.511 37.9465V37.9465Z" fill="#AB5931"/>
<path d="M42.1484 35.5484C41.823 35.327 39.4359 35.8301 37.1445 38.0066C34.8531 40.1832 34.093 41.9934 34.3199 42.6141C34.5469 43.2348 36.1 43.2074 36.7234 43.2074C37.3469 43.2074 38.952 43.1938 39.466 43.1801C40.4832 43.1527 40.4832 44.1398 39.4387 44.282C38.5938 44.3969 36.2723 44.4789 35.3398 44.818C34.5195 45.116 33.7867 45.3539 33.7293 46.0047C33.6719 46.6555 34.6891 48.266 36.3871 48.8594C38.0852 49.4527 40.0895 49.2832 40.4559 49.0016C40.8223 48.7199 41.0766 46.7129 41.134 45.7805C41.1914 44.848 41.1613 43.5191 41.8695 43.5191C42.5777 43.5191 42.3781 45.1871 42.4055 45.8652C42.4328 46.5434 42.3781 47.7301 42.7445 48.0145C43.1109 48.2961 44.5738 47.5688 45.8535 46.2891C47.0129 45.1297 47.9453 43.8855 47.6062 43.4617C47.2672 43.0379 44.4699 42.9805 43.7918 43.0105C43.1137 43.0379 43.0016 41.8813 43.9613 41.8512C44.9211 41.8238 47.2398 42.0207 47.9754 41.6242C48.7109 41.2277 49.6133 39.4203 48.3719 37.3859C47.1305 35.3516 45.6867 35.2941 45.066 35.3516C44.4453 35.409 44.1609 37.0469 43.9367 37.8398C43.7098 38.6301 43.4855 40.1012 43.4008 40.4402C43.316 40.7793 42.5805 41.0609 42.5258 40.3281C42.4684 39.5926 42.5832 38.2938 42.6105 37.5582C42.6379 36.8227 42.6844 35.9176 42.1484 35.5484V35.5484Z" fill="#FF605E"/>
<path d="M43.759 44.0277C43.759 44.0277 41.5551 42.1328 41.3856 42.3598C41.216 42.5867 40.877 42.9805 40.8195 43.6039C40.7621 44.2246 40.9699 44.4188 40.9699 44.4188C40.9699 44.4188 43.0234 47.1367 43.4746 47.6453C43.9258 48.1539 44.5656 49.0945 44.6231 49.5457C44.6805 49.9969 44.459 51.5035 44.6613 51.9711C44.9156 52.5645 45.4188 52.9582 46.1817 53.1031C46.5672 53.177 47.9563 53.084 48.3254 52.7148C48.6945 52.3457 48.8531 51.6648 48.8531 51.3258C48.8531 50.9867 48.6945 50.7406 49.0609 50.5711C49.4274 50.4016 50.5156 50.5328 51.0242 50.2512C51.5328 49.9695 51.9293 49.3625 51.902 48.6543C51.8746 47.9488 50.8793 47.4703 50.7945 47.4703C50.7098 47.4703 43.759 44.0277 43.759 44.0277Z" fill="#DFBBAA"/>
<path d="M44.0406 41.3809C43.9176 41.2961 43.8465 41.266 43.7535 41.2578C43.3489 41.225 42.8239 41.2606 42.2278 41.6352C41.6016 42.0262 41.1696 42.6441 41.1696 42.6441C41.1696 42.6441 44.634 46.9098 44.9457 47.3637C45.2574 47.8149 45.8207 48.5504 45.8207 48.9168C45.8207 49.2832 45.6074 50.7871 45.736 51.1207C45.9328 51.6293 46.6684 52.3348 47.3465 52.3348C48.309 52.3348 48.6836 51.8098 48.8258 51.4406C48.968 51.0715 48.9598 49.9586 49.184 49.3953C49.4657 48.6899 51.7516 49.2969 51.8938 48.8457C52.036 48.3945 52.241 47.1723 51.2485 46.5981C50.5129 46.1742 48.6754 46.4012 48.6754 46.4012C48.6754 46.4012 44.4016 41.6242 44.0406 41.3809Z" fill="#FFEBCA"/>
</svg>
