<svg width="75" height="74" viewBox="0 0 75 74" fill="none" xmlns="http://www.w3.org/2000/svg">
<ellipse cx="37.5" cy="36.9643" rx="37.5" ry="36.9643" fill="#FB8D1F"/>
<path d="M37.5 52.9063C41.8492 52.9063 45.375 51.8779 45.375 50.6094C45.375 49.3408 41.8492 48.3125 37.5 48.3125C33.1508 48.3125 29.625 49.3408 29.625 50.6094C29.625 51.8779 33.1508 52.9063 37.5 52.9063Z" fill="#C1C9CB"/>
<path d="M40.3437 49.4609C42.2578 51.2656 32.7969 51.2656 34.7109 49.4609C37.664 46.6719 37.5547 32.2891 37.5547 32.2891C37.5547 32.2891 37.4453 46.6719 40.3437 49.4609Z" fill="#ACAFB5"/>
<path d="M32.6875 28.8984C32.6875 28.8984 27.1641 22.6094 26.6719 22.0078C26.125 21.3516 24.9766 20.2031 23.5 20.2031C20.2187 20.2031 20.3281 22.3906 23.5 22.5C25.5781 22.6094 30.9922 30.1562 30.9922 30.1562L32.6875 28.8984" fill="#839391"/>
<path d="M53.9062 33.1094C53.9062 41.6406 46.5781 46.1797 37.5 46.1797C28.4219 46.1797 21.0938 41.6406 21.0938 33.1094C21.0938 27.3125 28.4219 25.1797 37.5 25.1797C46.5781 25.1797 53.9062 27.3125 53.9062 33.1094Z" fill="#DFE9EB"/>
<path d="M37.5 35.625C42.0305 35.625 45.7031 32.1482 45.7031 27.8594C45.7031 23.5705 42.0305 20.0938 37.5 20.0938C32.9695 20.0938 29.2969 23.5705 29.2969 27.8594C29.2969 32.1482 32.9695 35.625 37.5 35.625Z" fill="#FF78B5"/>
<path d="M44.2813 41.2031C48.8117 41.2031 52.4844 37.7263 52.4844 33.4375C52.4844 29.1487 48.8117 25.6719 44.2813 25.6719C39.7508 25.6719 36.0781 29.1487 36.0781 33.4375C36.0781 37.7263 39.7508 41.2031 44.2813 41.2031Z" fill="#BEDD4B"/>
<path d="M30.7188 41.2031C35.2492 41.2031 38.9219 37.7263 38.9219 33.4375C38.9219 29.1487 35.2492 25.6719 30.7188 25.6719C26.1883 25.6719 22.5156 29.1487 22.5156 33.4375C22.5156 37.7263 26.1883 41.2031 30.7188 41.2031Z" fill="#9B5C54"/>
<path d="M52.2656 29.0625V31.9063C52.2656 35.8438 45.6484 37.5938 37.5 37.5938C29.3516 37.5938 22.7344 35.8438 22.7344 31.9063V29.0625C21.6953 30.1562 21.0938 31.4687 21.0938 33.1094C21.0938 41.6406 28.4219 46.1797 37.5 46.1797C46.5781 46.1797 53.9062 41.6406 53.9062 33.1094C53.9062 31.4687 53.3047 30.1562 52.2656 29.0625" fill="#DFE9EB"/>
<path d="M53.25 34.2578C53.3047 34.8594 53.0312 35.4063 52.6484 35.8984C52.2656 36.3359 51.7734 36.7188 51.2812 37.0469C50.2969 37.7031 49.2031 38.1953 48.1094 38.5781C45.8672 39.3437 43.5703 39.7266 41.2187 39.9453C38.8672 40.1094 36.5703 40.1094 34.2187 39.7813C31.9219 39.5078 29.625 39.0156 27.4375 38.1953C29.7344 38.5781 31.9766 38.8516 34.2734 38.9609C36.5703 39.0703 38.8125 39.0703 41.1094 38.8516C43.3516 38.6875 45.6484 38.3047 47.8359 37.7578C48.9297 37.4297 50.0234 37.1016 51.0078 36.6094C51.5 36.3359 51.9922 36.0625 52.4297 35.6797C52.8125 35.2969 53.1953 34.8594 53.25 34.2578" fill="white"/>
<path opacity="0.3" d="M33.5992 30.9055L34.4113 30.0934L35.2234 30.906L34.4113 31.7176L33.5992 30.9055ZM32.7952 28.6917L33.3367 28.1503L33.8781 28.6923L33.3367 29.2337L32.7952 28.6917ZM35.4919 29.9353L36.0333 29.3939L36.5747 29.9359L36.0333 30.4773L35.4919 29.9353ZM34.7126 32.9923L35.254 32.4509L35.7954 32.9923L35.254 33.5337L34.7126 32.9923ZM31.1262 32.0156L31.6676 31.4742L32.209 32.0156L31.6676 32.557L31.1262 32.0156ZM35.2452 28.987L35.5159 28.7163L35.7867 28.9876L35.5154 29.2577L35.2452 28.987ZM31.2449 27.4082L31.5156 27.138L31.7863 27.4087L31.515 27.6795L31.2449 27.4082ZM30.9813 28.17L31.252 27.8998L31.5221 28.1705L31.2514 28.4412L30.9813 28.17ZM35.7298 31.7362L36.001 31.4655L36.2712 31.7367L36.0005 32.0069L35.7298 31.7362ZM31.9421 32.7955L32.2128 32.5248L32.4835 32.796L32.2123 33.0662L31.9421 32.7955ZM34.432 34.2884L34.7033 34.0177L34.974 34.289L34.7027 34.5591L34.432 34.2884ZM46.7105 31.1953L47.5226 30.3837L48.3347 31.1959L47.522 32.008L46.7105 31.1953ZM45.9465 29.0204L46.4879 28.479L47.0293 29.0204L46.4879 29.5618L45.9465 29.0204ZM42.8567 27.5148L43.3981 26.9734L43.9395 27.5154L43.3981 28.0568L42.8567 27.5148ZM44.6105 34.5247L45.1519 33.9833L45.6933 34.5247L45.1519 35.0661L44.6105 34.5247ZM48.6043 30.2246L49.1457 29.6832L49.6871 30.2246L49.1457 30.766L48.6043 30.2246ZM44.8806 30.7441L45.422 30.2027L45.9635 30.7441L45.422 31.2855L44.8806 30.7441ZM48.356 29.2774L48.6273 29.0073L48.8974 29.278L48.6267 29.5487L48.356 29.2774ZM46.2391 27.2753L46.5103 27.0052L46.7805 27.2759L46.5098 27.5466L46.2391 27.2753ZM48.9177 32.026L49.1889 31.7559L49.4591 32.0266L49.1884 32.2967L48.9177 32.026ZM45.667 33.4266L45.9377 33.1564L46.2084 33.4271L45.9372 33.6978L45.667 33.4266ZM43.3674 29.0428L43.6381 28.7727L43.9088 29.0434L43.6376 29.3141L43.3674 29.0428ZM46.4431 34.6909L46.7138 34.4208L46.9845 34.6915L46.7132 34.9622L46.4431 34.6909ZM38.5057 22.4409L39.0471 21.8995L39.5885 22.4415L39.0471 22.9829L38.5057 22.4409ZM39.1204 24.0225L39.6618 23.4811L40.2032 24.023L39.6618 24.5645L39.1204 24.0225ZM37.9342 25.8966L38.4756 25.3552L39.017 25.8966L38.4756 26.438L37.9342 25.8966ZM39.938 22.0685L40.2092 21.7984L40.4794 22.0691L40.2087 22.3398L39.938 22.0685ZM41.3085 23.2191L41.5792 22.949L41.8499 23.2197L41.5786 23.4904L41.3085 23.2191ZM38.2443 23.4893L38.5156 23.2186L38.7857 23.4898L38.515 23.76L38.2443 23.4893ZM37.6849 24.862L37.9561 24.5912L38.2263 24.862L37.9556 25.1327L37.6849 24.862ZM35.7281 21.893L35.9988 21.6228L36.269 21.8941L35.9983 22.1642L35.7281 21.893ZM37.407 21.3089L37.6783 21.0382L37.9484 21.3095L37.6777 21.5796L37.407 21.3089Z" fill="white"/>
</svg>
