<svg width="75" height="74" viewBox="0 0 75 74" fill="none" xmlns="http://www.w3.org/2000/svg">
<ellipse cx="37.5" cy="36.9643" rx="37.5" ry="36.9643" fill="#FB8D1F"/>
<path d="M43.66 27.2039C41.8722 29.9239 40.7778 34.2261 40.7778 35.8889C40.7778 34.5511 42.5111 31.6461 44.8867 29.2222M37 26.465C35.2089 29.0739 34.1111 33.2778 34.1111 35.275C34.1111 33.5972 36.0033 30.5206 38.5428 28.1206M29.6056 28.2911C28.25 30.85 27.4445 34.1783 27.4445 35.8889C27.4445 34.1956 29.3722 31.0761 31.9489 28.6667" stroke="black" stroke-width="0.416667" stroke-linecap="round" stroke-linejoin="round"/>
<path d="M53.5556 39.7778C53.5556 45.6072 46.5911 47.5556 38 47.5556C29.4089 47.5556 22.4445 45.6072 22.4445 39.7778C22.4445 33.9483 26.8889 26.4444 38 26.4444C49.1111 26.4444 53.5556 33.9483 53.5556 39.7778Z" fill="#6A462F"/>
<path d="M43.66 27.2039C44.4815 27.4431 45.2818 27.7497 46.0528 28.1206C43.1 30.6917 40.7778 34.3406 40.7778 35.8889C40.7778 34.2267 41.8722 29.9244 43.66 27.2039ZM40.4211 26.5706C39.6169 26.4853 38.8087 26.4432 38 26.4444C37.6606 26.4444 37.3278 26.4517 37 26.465C35.2089 29.0739 34.1111 33.2778 34.1111 35.275C34.1111 33.2044 36.9945 29 40.4211 26.5706V26.5706ZM34.4422 26.7256C30.7233 29.0472 27.4445 33.6811 27.4445 35.8889C27.4445 34.1783 28.2495 30.85 29.6056 28.2911C30.9928 27.5756 32.6 27.0322 34.4422 26.7256V26.7256Z" fill="#A57939"/>
<path d="M43.66 27.2039C44.4815 27.4431 45.2818 27.7497 46.0528 28.1206C43.1 30.6917 40.7778 34.3406 40.7778 35.8889C40.7778 34.2267 41.8722 29.9244 43.66 27.2039ZM40.4211 26.5706C39.6169 26.4853 38.8087 26.4432 38 26.4444C37.6606 26.4444 37.3278 26.4517 37 26.465C35.2089 29.0739 34.1111 33.2778 34.1111 35.275C34.1111 33.2044 36.9945 29 40.4211 26.5706V26.5706ZM34.4422 26.7256C30.7233 29.0472 27.4445 33.6811 27.4445 35.8889C27.4445 34.1783 28.2495 30.85 29.6056 28.2911C30.9928 27.5756 32.6 27.0322 34.4422 26.7256V26.7256Z" stroke="#A57939" stroke-width="0.416667" stroke-linejoin="round"/>
<path d="M53.5556 39.7778C53.5556 45.6072 46.5911 47.5556 38 47.5556C29.4089 47.5556 22.4445 45.6072 22.4445 39.7778C22.4445 33.9483 26.8889 26.4444 38 26.4444C49.1111 26.4444 53.5556 33.9483 53.5556 39.7778Z" stroke="black" stroke-width="0.416667"/>
</svg>
