<svg width="75" height="74" viewBox="0 0 75 74" fill="none" xmlns="http://www.w3.org/2000/svg">
<ellipse cx="37.5" cy="36.9643" rx="37.5" ry="36.9643" fill="#FB8D1F"/>
<g clip-path="url(#clip0_7_192)">
<path d="M48.2862 30.8495C49.6854 30.8495 50.8196 29.7153 50.8196 28.3161C50.8196 26.9169 49.6854 25.7827 48.2862 25.7827C46.887 25.7827 45.7527 26.9169 45.7527 28.3161C45.7527 29.7153 46.887 30.8495 48.2862 30.8495Z" fill="#FF5959"/>
<path d="M17.7928 40.4402C19.192 40.4402 20.3262 39.3059 20.3262 37.9068C20.3262 36.5076 19.192 35.3733 17.7928 35.3733C16.3936 35.3733 15.2593 36.5076 15.2593 37.9068C15.2593 39.3059 16.3936 40.4402 17.7928 40.4402Z" fill="#FF5959"/>
<path d="M55.8023 40.1612C57.2015 40.1612 58.3357 39.0269 58.3357 37.6277C58.3357 36.2285 57.2015 35.0943 55.8023 35.0943C54.4031 35.0943 53.2689 36.2285 53.2689 37.6277C53.2689 39.0269 54.4031 40.1612 55.8023 40.1612Z" fill="#FF5959"/>
<path d="M48.3671 32.2557C48.3771 32.0675 48.3824 31.8781 48.3824 31.6874C48.3824 25.8504 43.6507 21.1187 37.8139 21.1187C31.977 21.1187 27.2453 25.8504 27.2453 31.6874C27.2453 31.8781 27.2506 32.0675 27.2606 32.2557H48.3671Z" fill="#FFA250"/>
<path d="M44.7585 32.2557C44.7737 32.068 44.7836 31.8788 44.7836 31.6874C44.7836 27.8441 41.657 24.7174 37.8137 24.7174C33.9705 24.7174 30.8439 27.844 30.8439 31.6874C30.8439 31.8788 30.8538 32.068 30.869 32.2557H44.7585Z" fill="#FFE165"/>
<path d="M41.136 32.2557C41.1675 32.0709 41.1849 31.8811 41.1849 31.6874C41.1849 29.8284 39.6727 28.3161 37.8137 28.3161C35.9548 28.3161 34.4426 29.8284 34.4426 31.6874C34.4426 31.8811 34.4599 32.0709 34.4914 32.2557H41.136Z" fill="#FFA250"/>
<path d="M42.0183 40.218C42.03 39.9972 42.0363 39.7749 42.0363 39.5512C42.0363 32.7026 36.4844 27.1508 29.6359 27.1508C22.7874 27.1508 17.2357 32.7026 17.2357 39.5512C17.2357 39.7749 17.2419 39.9972 17.2536 40.218H42.0183Z" fill="#FFA250"/>
<path d="M37.7843 40.218C37.8022 39.9978 37.8137 39.7758 37.8137 39.5512C37.8137 35.0418 34.1452 31.3732 29.6359 31.3732C25.1266 31.3732 21.4581 35.0418 21.4581 39.5512C21.4581 39.7758 21.4697 39.9978 21.4875 40.218H37.7843Z" fill="#FFE165"/>
<path d="M33.534 40.218C33.5711 40.0011 33.5913 39.7785 33.5913 39.5512C33.5913 37.3701 31.817 35.5956 29.6359 35.5956C27.4549 35.5956 25.6805 37.3701 25.6805 39.5512C25.6805 39.7786 25.7009 40.0011 25.7378 40.218H33.534V40.218Z" fill="#FFA250"/>
<path d="M55.7488 39.5974C55.7588 39.4092 55.7641 39.2198 55.7641 39.0291C55.7641 33.1921 51.0324 28.4604 45.1956 28.4604C39.3588 28.4604 34.627 33.1921 34.627 39.0291C34.627 39.2198 34.6323 39.4092 34.6423 39.5974H55.7488Z" fill="#FFA250"/>
<path d="M52.1402 39.5974C52.1554 39.4097 52.1653 39.2205 52.1653 39.0291C52.1653 35.1858 49.0387 32.0591 45.1955 32.0591C41.3522 32.0591 38.2256 35.1857 38.2256 39.0291C38.2256 39.2205 38.2355 39.4097 38.2507 39.5974H52.1402Z" fill="#FFE165"/>
<path d="M48.5179 39.5974C48.5494 39.4126 48.5667 39.2228 48.5667 39.029C48.5667 37.1701 47.0545 35.6578 45.1956 35.6578C43.3366 35.6578 41.8244 37.1701 41.8244 39.029C41.8244 39.2228 41.8418 39.4126 41.8733 39.5974H48.5179Z" fill="#FFA250"/>
<path d="M55.2528 45.8813H17.7471C17.2056 45.8813 16.7079 45.5838 16.4514 45.1069L14.1775 40.8785C13.6504 39.8984 14.3603 38.7107 15.4731 38.7107H57.5267C58.6395 38.7107 59.3494 39.8984 58.8224 40.8785L56.5485 45.107C56.292 45.5839 55.7942 45.8813 55.2528 45.8813Z" fill="#5FD2DB"/>
</g>
<defs>
<clipPath id="clip0_7_192">
<rect width="45" height="45" fill="white" transform="translate(14 11)"/>
</clipPath>
</defs>
</svg>
