<svg width="75" height="74" viewBox="0 0 75 74" fill="none" xmlns="http://www.w3.org/2000/svg">
<ellipse cx="37.5" cy="36.9643" rx="37.5" ry="36.9643" fill="#FB8D1F"/>
<path d="M42.4525 27.9284C40.8882 30.3084 39.9306 34.0728 39.9306 35.5278C39.9306 34.3572 41.4472 31.8153 43.5259 29.6944M36.625 27.2819C35.0578 29.5647 34.0972 33.2431 34.0972 34.9906C34.0972 33.5226 35.7529 30.8305 37.975 28.7305M30.1549 28.8797C28.9688 31.1187 28.2639 34.031 28.2639 35.5278C28.2639 34.0461 29.9507 31.3166 32.2053 29.2083" stroke="black" stroke-width="0.972222" stroke-linecap="round" stroke-linejoin="round"/>
<path d="M51.1111 38.9306C51.1111 44.0313 45.0172 45.7361 37.5 45.7361C29.9828 45.7361 23.8889 44.0313 23.8889 38.9306C23.8889 33.8298 27.7778 27.2639 37.5 27.2639C47.2222 27.2639 51.1111 33.8298 51.1111 38.9306Z" fill="#6A462F"/>
<path d="M42.4525 27.9284C43.1713 28.1378 43.8716 28.406 44.5462 28.7305C41.9625 30.9802 39.9306 34.173 39.9306 35.5278C39.9306 34.0733 40.8882 30.3089 42.4525 27.9284ZM39.6185 27.3742C38.9148 27.2996 38.2076 27.2628 37.5 27.2639C37.203 27.2639 36.9118 27.2702 36.625 27.2819C35.0578 29.5647 34.0972 33.2431 34.0972 34.9906C34.0972 33.1789 36.6202 29.5 39.6185 27.3742V27.3742ZM34.387 27.5099C31.1329 29.5413 28.2639 33.596 28.2639 35.5278C28.2639 34.031 28.9683 31.1188 30.1549 28.8797C31.3687 28.2536 32.775 27.7782 34.387 27.5099V27.5099Z" fill="#A57939"/>
<path d="M42.4525 27.9284C43.1713 28.1378 43.8716 28.406 44.5462 28.7305C41.9625 30.9802 39.9306 34.173 39.9306 35.5278C39.9306 34.0733 40.8882 30.3089 42.4525 27.9284ZM39.6185 27.3742C38.9148 27.2996 38.2076 27.2628 37.5 27.2639C37.203 27.2639 36.9118 27.2702 36.625 27.2819C35.0578 29.5647 34.0972 33.2431 34.0972 34.9906C34.0972 33.1789 36.6202 29.5 39.6185 27.3742V27.3742ZM34.387 27.5099C31.1329 29.5413 28.2639 33.596 28.2639 35.5278C28.2639 34.031 28.9683 31.1188 30.1549 28.8797C31.3687 28.2536 32.775 27.7782 34.387 27.5099V27.5099Z" stroke="#A57939" stroke-width="0.972222" stroke-linejoin="round"/>
<path d="M51.1111 38.9306C51.1111 44.0313 45.0172 45.7361 37.5 45.7361C29.9828 45.7361 23.8889 44.0313 23.8889 38.9306C23.8889 33.8298 27.7778 27.2639 37.5 27.2639C47.2222 27.2639 51.1111 33.8298 51.1111 38.9306Z" stroke="black" stroke-width="0.972222"/>
</svg>
