<svg width="75" height="74" viewBox="0 0 75 74" fill="none" xmlns="http://www.w3.org/2000/svg">
<ellipse cx="37.5" cy="36.9643" rx="37.5" ry="36.9643" fill="#FB8D1F"/>
<path d="M42.5403 51.6007L24.068 40.9448L22.0313 35.8928L44.2969 22.4163L47.8126 25.9319V48.5561C47.8126 51.262 44.884 52.953 42.5403 51.6007Z" fill="#FCD53F"/>
<path d="M47.8125 26.5413C37.6852 26.9573 28.9395 32.7276 24.3317 41.096L20.4411 38.8518C18.7395 37.8698 18.1606 35.669 19.3301 34.0894C27.1688 23.5132 38.509 20.2917 44.2278 19.3179C46.1813 18.9851 47.8125 20.539 47.8125 22.5218V26.5413Z" fill="#F3AD61"/>
<path d="M45.4688 34.135C45.4688 35.2228 45.0367 36.2661 44.2675 37.0353C43.4983 37.8045 42.4551 38.2366 41.3672 38.2366C40.2794 38.2366 39.2362 37.8045 38.467 37.0353C37.6978 36.2661 37.2657 35.2228 37.2657 34.135C37.2657 33.0472 37.6978 32.004 38.467 31.2348C39.2362 30.4656 40.2794 30.0335 41.3672 30.0335C42.4551 30.0335 43.4983 30.4656 44.2675 31.2348C45.0367 32.004 45.4688 33.0472 45.4688 34.135V34.135ZM36.0938 41.1663C36.0938 41.9433 35.7851 42.6885 35.2357 43.2379C34.6863 43.7873 33.9411 44.096 33.1641 44.096C32.3871 44.096 31.6419 43.7873 31.0925 43.2379C30.5431 42.6885 30.2344 41.9433 30.2344 41.1663C30.2344 40.3893 30.5431 39.6441 31.0925 39.0947C31.6419 38.5453 32.3871 38.2366 33.1641 38.2366C33.9411 38.2366 34.6863 38.5453 35.2357 39.0947C35.7851 39.6441 36.0938 40.3893 36.0938 41.1663V41.1663ZM41.9532 46.4397C42.5748 46.4397 43.1709 46.1928 43.6105 45.7533C44.05 45.3137 44.2969 44.7176 44.2969 44.096C44.2969 43.4744 44.05 42.8782 43.6105 42.4387C43.1709 41.9992 42.5748 41.7522 41.9532 41.7522C41.3316 41.7522 40.7354 41.9992 40.2959 42.4387C39.8564 42.8782 39.6094 43.4744 39.6094 44.096C39.6094 44.7176 39.8564 45.3137 40.2959 45.7533C40.7354 46.1928 41.3316 46.4397 41.9532 46.4397V46.4397Z" fill="#F8312F"/>
</svg>
