<svg width="25" height="25" viewBox="0 0 25 25" fill="none" xmlns="http://www.w3.org/2000/svg">
<circle cx="12.5" cy="12.5" r="12.5" fill="#01A082"/>
<path d="M11.8931 6.32084C12.0788 6.21774 12.2876 6.16364 12.5 6.16364C12.7124 6.16364 12.9212 6.21774 13.1069 6.32084L17.8038 8.92959C17.9011 8.98374 17.9823 9.06294 18.0387 9.15898C18.0952 9.25502 18.125 9.36442 18.125 9.47584V14.6227C18.1249 14.8456 18.0653 15.0645 17.9522 15.2565C17.8391 15.4486 17.6767 15.607 17.4819 15.7152L13.1069 18.1465C12.9212 18.2496 12.7124 18.3037 12.5 18.3037C12.2876 18.3037 12.0788 18.2496 11.8931 18.1465L7.51812 15.7152C7.32335 15.607 7.16102 15.4488 7.04795 15.2568C6.93487 15.0648 6.87516 14.8461 6.875 14.6233V9.47584C6.875 9.36442 6.90478 9.25502 6.96126 9.15898C7.01774 9.06294 7.09887 8.98374 7.19625 8.92959L11.8937 6.32084H11.8931Z" stroke="white" stroke-width="1.25" stroke-linecap="round" stroke-linejoin="round"/>
<path d="M6.875 9.10834L12.5 12.2333M12.5 12.2333L18.125 9.10834M12.5 12.2333V18.1708" stroke="white" stroke-width="1.25" stroke-linejoin="round"/>
<path d="M9.6875 10.6708L15.3125 7.54584M8.75 12.4383L10.625 13.4833" stroke="white" stroke-width="1.25" stroke-linecap="round" stroke-linejoin="round"/>
</svg>
